<?xml version="1.0" encoding="utf-8"?>
<!-- Generator: Adobe Illustrator 16.0.0, SVG Export Plug-In . SVG Version: 6.00 Build 0)  -->
<!DOCTYPE svg PUBLIC "-//W3C//DTD SVG 1.1//EN" "http://www.w3.org/Graphics/SVG/1.1/DTD/svg11.dtd">
<svg version="1.1" id="Слой_1" xmlns="http://www.w3.org/2000/svg" xmlns:xlink="http://www.w3.org/1999/xlink" x="0px" y="0px"
	 width="42px" height="42px" viewBox="0 0 42 42" enable-background="new 0 0 42 42" xml:space="preserve">
<g>
	<defs>
		<rect id="SVGID_1_" y="0" width="42" height="41.999"/>
	</defs>
	<clipPath id="SVGID_2_">
		<use xlink:href="#SVGID_1_"  overflow="visible"/>
	</clipPath>
	<path clip-path="url(#SVGID_2_)" fill="#E2018A" d="M41.25,21c0,11.182-9.065,20.25-20.25,20.25C9.818,41.25,0.75,32.182,0.75,21
		C0.75,9.813,9.818,0.75,21,0.75C32.185,0.75,41.25,9.813,41.25,21"/>
	<path clip-path="url(#SVGID_2_)" fill="#FFFFFF" d="M21,41.999C9.421,41.999,0,32.579,0,21C0,9.42,9.421,0,21,0s21,9.42,21,21
		C42,32.579,32.579,41.999,21,41.999 M21,1.5C10.248,1.5,1.5,10.248,1.5,21c0,10.752,8.748,19.499,19.5,19.499S40.5,31.752,40.5,21
		C40.5,10.248,31.752,1.5,21,1.5"/>
	<path clip-path="url(#SVGID_2_)" fill="#FFFFFF" d="M17.345,12.698c1.437,0,2.602-1.165,2.602-2.602s-1.165-2.601-2.602-2.601
		s-2.602,1.164-2.602,2.601S15.908,12.698,17.345,12.698"/>
	<path clip-path="url(#SVGID_2_)" fill="#FFFFFF" d="M23.211,12.698c1.437,0,2.602-1.165,2.602-2.602s-1.165-2.601-2.602-2.601
		c-1.438,0-2.603,1.164-2.603,2.601S21.773,12.698,23.211,12.698"/>
	<path clip-path="url(#SVGID_2_)" fill="#FFFFFF" d="M30.458,21.377l-2.37-7.241c-0.146-0.448-0.564-0.746-1.035-0.746H25.88h-0.844
		H14.812h-0.136h-2.098c-0.602,0-1.09,0.477-1.09,1.079v7.247c0,0.603,0.495,1.09,1.097,1.09c0.601,0,1.096-0.487,1.096-1.09v-6.169
		h0.467v7.777v0.49v9.317c0,0.753,0.614,1.362,1.367,1.362c0.752,0,1.366-0.609,1.366-1.362v-8.812h0.935v8.812
		c0,0.753,0.614,1.362,1.366,1.362c0.456,0,0.861-0.224,1.109-0.568c0.243,0.345,0.641,0.568,1.097,0.568
		c0.753,0,1.349-0.609,1.349-1.362v-5.289h0.934v5.289c0,0.753,0.614,1.362,1.367,1.362c0.752,0,1.366-0.609,1.366-1.362v-5.289
		h2.243c-0.846-3.307-1.596-6.609-2.243-9.915v-1.952l1.986,6.079c0.149,0.46,0.575,0.751,1.033,0.751
		c0.112,0,0.227-0.017,0.34-0.054C30.334,22.566,30.646,21.951,30.458,21.377 M23.345,19.849c-0.279,0.451-0.667,0.889-1.151,1.3
		c-0.815,0.693-1.621,1.072-1.654,1.088c-0.105,0.049-0.216,0.059-0.29,0.059c-0.075,0-0.185-0.01-0.29-0.059
		c-0.034-0.017-0.839-0.396-1.655-1.088c-0.484-0.411-0.871-0.849-1.15-1.3c-0.358-0.577-0.539-1.178-0.539-1.786
		c0-0.364,0.068-0.705,0.202-1.013c0.124-0.285,0.302-0.537,0.528-0.748c0.416-0.389,0.972-0.611,1.524-0.611
		c0.445,0,0.852,0.147,1.144,0.416c0.091,0.083,0.169,0.176,0.236,0.278c0.066-0.102,0.145-0.195,0.236-0.278
		c0.292-0.269,0.698-0.416,1.143-0.416c0.554,0,1.109,0.222,1.525,0.611c0.226,0.211,0.403,0.463,0.528,0.748
		c0.134,0.308,0.2,0.649,0.2,1.013C23.882,18.67,23.701,19.271,23.345,19.849"/>
</g>
</svg>
