<?xml version="1.0" encoding="utf-8"?>
<!-- Generator: Adobe Illustrator 16.0.0, SVG Export Plug-In . SVG Version: 6.00 Build 0)  -->
<!DOCTYPE svg PUBLIC "-//W3C//DTD SVG 1.1//EN" "http://www.w3.org/Graphics/SVG/1.1/DTD/svg11.dtd">
<svg version="1.1" id="Слой_1" xmlns="http://www.w3.org/2000/svg" xmlns:xlink="http://www.w3.org/1999/xlink" x="0px" y="0px"
	 width="42px" height="41.999px" viewBox="0 0 42 41.999" enable-background="new 0 0 42 41.999" xml:space="preserve">
<g>
	<defs>
		<rect id="SVGID_1_" y="0" width="42" height="41.998"/>
	</defs>
	<clipPath id="SVGID_2_">
		<use xlink:href="#SVGID_1_"  overflow="visible"/>
	</clipPath>
	<path clip-path="url(#SVGID_2_)" fill="#FBCB2E" d="M21,0.75c11.183,0,20.25,9.063,20.25,20.25c0,11.182-9.067,20.25-20.25,20.25
		C9.814,41.25,0.75,32.182,0.75,21C0.75,9.813,9.814,0.75,21,0.75"/>
	<path clip-path="url(#SVGID_2_)" fill="#FFFFFF" d="M21,42C9.421,42,0,32.579,0,21C0,9.42,9.421,0,21,0s21,9.42,21,21
		C42,32.579,32.579,42,21,42 M21,1.5C10.248,1.5,1.5,10.248,1.5,21c0,10.752,8.748,19.5,19.5,19.5S40.5,31.752,40.5,21
		C40.5,10.248,31.752,1.5,21,1.5"/>
	<path clip-path="url(#SVGID_2_)" fill="#FFFFFF" d="M15.763,27.362c0.371,0.472,0.705,0.961,0.955,1.484
		c-0.258-0.393-0.717-0.91-1.124-1.317c-0.27-0.27-0.516-0.493-0.663-0.598c0.123,0.185,0.256,0.482,0.393,0.868
		c0.64,1.807,1.376,5.484,1.762,7.922c0.206,1.113,2.361,1.481,3.672,0.934c0.101-0.04,0.195-0.086,0.284-0.139
		c0.254-0.149,0.459-0.344,0.584-0.584c0.038-0.074,0.071-0.153,0.093-0.238c0.072-0.271,0.056-0.592-0.083-0.962
		c-0.787-2.111-1.51-7.032-0.262-8.971c0.85-1.32,2.488-2.921,1.97-5.229c0,0-0.534-0.026-0.967,0.216
		c-0.171,0.092-0.326,0.229-0.425,0.425c-0.015,0.022-0.024,0.044-0.034,0.068c0.069,3.122-1.402,3.173-2.203,5.339
		c-0.655,1.767-0.514,4.167-0.31,6.011h-0.013c-0.455-2.544-0.785-5.414,0.595-7.569c0.292-0.462,0.626-0.883,0.862-1.318
		c0.333-0.586,0.451-1.226,0.457-1.885c0.002-0.137-0.002-0.272-0.01-0.409c-1.231-1.601-4.949,1.946-7.013-2.177
		c0,0-0.933-0.485-1.386-0.403c-0.133,0.024-0.224,0.095-0.24,0.24c-0.004,0.02-0.004,0.044-0.004,0.068
		c-0.125,0.917,0.266,2.186,0.355,2.951c0.268,2.33,1.013,3.199,1.955,4.306C15.233,26.711,15.507,27.034,15.763,27.362"/>
	<path clip-path="url(#SVGID_2_)" fill="#FFFFFF" d="M13.221,17.042c0.073,0.246,0.2,0.437,0.357,0.576
		c0.04,0.036,0.084,0.07,0.129,0.101c0.348,0.237,0.795,0.268,1.138,0.133c0.281,1.055,1.357,1.619,2.608,1.829
		c0.322,0.056,0.656,0.086,0.993,0.096c0.991,0.03,1.994-0.127,2.731-0.409c0.544-0.207,1.056-0.449,1.498-0.767
		c0.333-0.238,0.627-0.518,0.86-0.86c0.208-0.3,0.369-0.651,0.472-1.058c0.068-0.273,0.115-0.558,0.155-0.853
		c-0.105-0.5-0.198-1.006-0.252-1.517c-0.028-0.244-0.046-0.488-0.054-0.731c-0.005-0.101-0.005-0.202-0.003-0.302
		c0.005-0.719,0.116-1.435,0.358-2.095c-0.106,0.592-0.113,1.19-0.04,1.774c0.024,0.194,0.056,0.385,0.096,0.574
		c0.025,0.115,0.052,0.23,0.079,0.343c0.015,0.054,0.028,0.107,0.042,0.159c0.016-0.083,0.029-0.165,0.047-0.248
		c0.101-0.515,0.249-1.045,0.495-1.585c0.561-1.241,1.63-2.534,3.795-3.795c0.017-0.01,0.032-0.02,0.051-0.03
		c0.25-0.145,0.413-0.324,0.504-0.523c0.559-1.222-1.569-3.21-2.953-2.665c-0.062,0.024-0.12,0.053-0.177,0.087
		c-0.113,0.066-0.221,0.151-0.316,0.259c-0.208,0.23-0.401,0.443-0.589,0.645c-1.708,1.865-2.58,2.683-5.18,5.243
		c-0.6,0.61-1.116,1.097-1.565,1.504l-0.022,0.02c-0.741,0.669-1.301,1.118-1.766,1.537c-0.228,0.208-0.434,0.409-0.625,0.624
		l-0.014,0.017c-0.221,0.249-0.425,0.521-0.624,0.852c-0.188,0.312-0.375,0.674-0.57,1.117c0.028-0.235,0.074-0.465,0.139-0.686
		c0.032-0.115,0.07-0.23,0.113-0.343c0.545-1.472,1.82-2.723,3.252-4.159c-1.172,0.228-2.69,0.483-3.796,1.206
		c-0.413,0.27-0.77,0.605-1.028,1.028c-0.118,0.193-0.217,0.405-0.291,0.636C13.014,15.572,13.016,16.347,13.221,17.042"/>
</g>
</svg>
