<?xml version="1.0" encoding="utf-8"?>
<!-- Generator: Adobe Illustrator 16.0.0, SVG Export Plug-In . SVG Version: 6.00 Build 0)  -->
<!DOCTYPE svg PUBLIC "-//W3C//DTD SVG 1.1//EN" "http://www.w3.org/Graphics/SVG/1.1/DTD/svg11.dtd">
<svg version="1.1" id="Слой_1" xmlns="http://www.w3.org/2000/svg" xmlns:xlink="http://www.w3.org/1999/xlink" x="0px" y="0px"
	 width="42px" height="42px" viewBox="0 0 42 42" enable-background="new 0 0 42 42" xml:space="preserve">
<g>
	<defs>
		<rect id="SVGID_1_" width="42" height="42"/>
	</defs>
	<clipPath id="SVGID_2_">
		<use xlink:href="#SVGID_1_"  overflow="visible"/>
	</clipPath>
	<path clip-path="url(#SVGID_2_)" fill="#EF932D" d="M41.25,21c0,11.182-9.069,20.25-20.25,20.25C9.817,41.25,0.75,32.182,0.75,21
		C0.75,9.813,9.817,0.75,21,0.75C32.181,0.75,41.25,9.813,41.25,21"/>
	<path clip-path="url(#SVGID_2_)" fill="#FFFFFF" d="M21,42C9.421,42,0,32.58,0,21S9.421,0,21,0s21,9.42,21,21S32.579,42,21,42
		 M21,1.5C10.248,1.5,1.5,10.248,1.5,21c0,10.753,8.748,19.5,19.5,19.5S40.5,31.753,40.5,21C40.5,10.248,31.752,1.5,21,1.5"/>
	<polygon clip-path="url(#SVGID_2_)" fill="#FFFFFF" points="27.834,8.959 27.698,8.946 20.497,8.946 13.875,23.199 20.313,22.823 
		15.908,33.05 28.133,17.861 22.285,18.205 	"/>
</g>
</svg>
