<?xml version="1.0" encoding="utf-8"?>
<!-- Generator: Adobe Illustrator 16.0.0, SVG Export Plug-In . SVG Version: 6.00 Build 0)  -->
<!DOCTYPE svg PUBLIC "-//W3C//DTD SVG 1.1//EN" "http://www.w3.org/Graphics/SVG/1.1/DTD/svg11.dtd">
<svg version="1.1" id="Слой_1" xmlns="http://www.w3.org/2000/svg" xmlns:xlink="http://www.w3.org/1999/xlink" x="0px" y="0px"
	 width="42px" height="42px" viewBox="0 0 42 42" enable-background="new 0 0 42 42" xml:space="preserve">
<g>
	<defs>
		<rect id="SVGID_1_" width="42" height="42"/>
	</defs>
	<clipPath id="SVGID_2_">
		<use xlink:href="#SVGID_1_"  overflow="visible"/>
	</clipPath>
	<path clip-path="url(#SVGID_2_)" fill="#6C2D8E" d="M21,0.75c11.185,0,20.25,9.063,20.25,20.25c0,11.183-9.065,20.25-20.25,20.25
		C9.816,41.25,0.75,32.183,0.75,21C0.75,9.813,9.816,0.75,21,0.75"/>
	<path clip-path="url(#SVGID_2_)" fill="#FFFFFF" d="M21,42C9.421,42,0,32.58,0,21S9.421,0,21,0s21,9.42,21,21S32.579,42,21,42
		 M21,1.5C10.248,1.5,1.5,10.248,1.5,21c0,10.753,8.748,19.5,19.5,19.5S40.5,31.753,40.5,21C40.5,10.248,31.752,1.5,21,1.5"/>
	<path clip-path="url(#SVGID_2_)" fill-rule="evenodd" clip-rule="evenodd" fill="#FFFFFF" d="M30.903,13.758
		c-1.713-0.608-2.774-2.507-3.183-3.649c-1.825,2.81-5.332,1.798-6.719-0.854c-1.383,2.652-4.889,3.664-6.715,0.854
		c-0.406,1.142-1.469,3.041-3.184,3.649c2.196,1.591,2.52,1.408,1.592,3.943c-5.547,15.143,7.489,9.805,8.307,15.046
		c0.821-5.237,13.832,0.085,8.326-15.005C28.399,15.201,28.682,15.37,30.903,13.758 M14.199,18.366
		c0.662-1.814,1.676-3.102-0.211-4.644c0.287-0.311,0.553-0.645,0.789-0.992c2.258,1.272,4.332,0.765,6.225-0.878
		c1.896,1.643,3.976,2.15,6.233,0.878c0.222,0.328,0.47,0.643,0.739,0.936c-3.206,3.323-9.838,8.421-14.948,10.548
		C12.934,22.864,13.248,21.002,14.199,18.366 M26.457,27.614c-1.82,0.716-3.838,0.896-5.455,2.098
		c-1.348-1.01-3.115-1.321-4.731-1.846c4.192-1.63,9.271-4.066,12.39-6.672C29.666,25.535,28.244,26.912,26.457,27.614"/>
</g>
</svg>
