<?xml version="1.0" encoding="utf-8"?>
<!-- Generator: Adobe Illustrator 16.0.0, SVG Export Plug-In . SVG Version: 6.00 Build 0)  -->
<!DOCTYPE svg PUBLIC "-//W3C//DTD SVG 1.1//EN" "http://www.w3.org/Graphics/SVG/1.1/DTD/svg11.dtd">
<svg version="1.1" id="Слой_1" xmlns="http://www.w3.org/2000/svg" xmlns:xlink="http://www.w3.org/1999/xlink" x="0px" y="0px"
	 width="42px" height="42px" viewBox="0 0 42 42" enable-background="new 0 0 42 42" xml:space="preserve">
<g>
	<defs>
		<rect id="SVGID_1_" y="0" width="42" height="42"/>
	</defs>
	<clipPath id="SVGID_2_">
		<use xlink:href="#SVGID_1_"  overflow="visible"/>
	</clipPath>
	<path clip-path="url(#SVGID_2_)" fill="#92C64B" d="M41.25,21c0,11.182-9.067,20.249-20.25,20.249
		C9.817,41.249,0.75,32.182,0.75,21C0.75,9.813,9.817,0.75,21,0.75C32.183,0.75,41.25,9.813,41.25,21"/>
	<path clip-path="url(#SVGID_2_)" fill="#FFFFFF" d="M21,42C9.421,42,0,32.579,0,21C0,9.42,9.421,0,21,0s21,9.42,21,21
		C42,32.579,32.579,42,21,42 M21,1.5C10.248,1.5,1.5,10.248,1.5,21c0,10.751,8.748,19.5,19.5,19.5S40.5,31.751,40.5,21
		C40.5,10.248,31.752,1.5,21,1.5"/>
	<path clip-path="url(#SVGID_2_)" fill-rule="evenodd" clip-rule="evenodd" fill="#FFFFFF" d="M15.136,34.605
		c1.051-0.803,5.301-5.799,4.295-6.906c-0.256-0.259-0.545-0.476-0.877-0.546c-0.762-0.163-1.82,0.655-2.416,1.001
		c-0.725,0.419-1.77,1.177-2.609,1.306c-0.622,0.094-1.112-0.109-1.317-0.729c-0.107-0.33-0.135-0.739-0.166-1.088
		c-0.035-0.389-0.072-1.146-0.519-1.301c-0.268-0.091-0.762-0.19-0.674-0.577c0.035-0.158,0.082-0.325,0.148-0.475
		c0.19,0.022,0.467,0.046,0.617-0.011c0.196-0.073,0.211-0.217-0.009-0.186c-0.119,0.02-0.168,0.02-0.291,0.007
		c-0.346-0.031-0.672-0.135-0.955-0.341c-0.188-0.135-0.188-0.36-0.079-0.548c0.104-0.177,0.239-0.658,0.196-0.891
		c-0.026-0.148-0.129-0.261-0.25-0.341c-0.354-0.158-0.707-0.261-1.03-0.458c-0.099-0.089-0.156-0.197-0.168-0.328
		c-0.011-0.144,0.028-0.314,0.116-0.511c0.381-1.106,0.761-2.151,1.051-3.241c0.054-0.204,0.113-0.408,0.164-0.614
		c0.095-0.37-0.004-0.678-0.239-0.968c-0.414-0.509-0.519-1.102-0.554-1.79c-0.063-1.312,0.308-2.843,0.494-3.889
		c1.424,1.943,3.601,2.65,5.57,3.699c3.945,2.104,5.708,6.259,5.381,10.385c-0.272,3.447-1.91,6.564-4.775,8.998
		c3.863,0.193,7.212-2.44,8.511-4.382c2.28-3.41,2.58-8.02-0.028-12.12c-2.109-3.311-5.191-4.763-8.873-6.192
		c-1.549-0.601-3.059-1.054-5.098-2.457c2.809,1.325,6.676,1.988,9.778,3.699c1.775,0.982,3.232,2.101,4.373,3.525
		c4.07,5.084,3.998,12.299-2.592,17.239c9.004-2.004,12.955-12.785,6.719-20.153c-3.225-3.809-9.075-5.795-15.194-6.281
		c8.641,0.13,14.688,2.878,17.436,7.689c3.32,5.816,1.688,13.668-4,17.381C23.734,34.519,19.115,35.282,15.136,34.605"/>
	<path clip-path="url(#SVGID_2_)" fill="#FFFFFF" d="M18.002,35.091c-0.989,0-1.968-0.081-2.907-0.24
		c-0.098-0.017-0.177-0.091-0.202-0.187c-0.023-0.097,0.013-0.198,0.092-0.259c0.939-0.717,4.199-4.543,4.345-6.146
		c0.016-0.182-0.012-0.313-0.083-0.393c-0.26-0.263-0.505-0.418-0.744-0.47c-0.502-0.109-1.305,0.386-1.859,0.737
		c-0.139,0.089-0.268,0.17-0.381,0.235c-0.155,0.09-0.326,0.195-0.505,0.308c-0.696,0.432-1.483,0.92-2.191,1.029
		c-0.785,0.121-1.364-0.208-1.592-0.898c-0.106-0.326-0.139-0.706-0.169-1.041l-0.015-0.177c-0.026-0.298-0.078-0.92-0.345-1.011
		l-0.097-0.031c-0.282-0.088-0.868-0.272-0.74-0.838c0.041-0.183,0.088-0.338,0.143-0.472c-0.195-0.066-0.374-0.158-0.536-0.276
		c-0.273-0.196-0.333-0.557-0.147-0.876c0.087-0.15,0.194-0.569,0.165-0.719c-0.013-0.079-0.085-0.141-0.142-0.18
		c-0.08-0.031-0.198-0.077-0.314-0.123c-0.234-0.093-0.476-0.188-0.708-0.33c-0.182-0.155-0.268-0.325-0.286-0.519
		c-0.016-0.188,0.029-0.396,0.136-0.635l0.182-0.529c0.318-0.913,0.617-1.775,0.856-2.674l0.055-0.204
		c0.037-0.135,0.074-0.27,0.107-0.406c0.07-0.271,0.012-0.501-0.19-0.75c-0.479-0.591-0.576-1.279-0.61-1.935
		c-0.052-1.095,0.187-2.321,0.377-3.307c0.045-0.227,0.086-0.441,0.121-0.638c0.018-0.099,0.092-0.178,0.19-0.2
		c0.096-0.023,0.2,0.015,0.257,0.095c1.079,1.471,2.583,2.199,4.176,2.971c0.441,0.213,0.881,0.426,1.311,0.656
		c3.76,2.005,5.872,6.076,5.512,10.625c-0.262,3.328-1.771,6.335-4.373,8.733c3.583-0.11,6.527-2.595,7.652-4.276
		c2.372-3.549,2.359-8.088-0.032-11.847c-2.11-3.312-5.211-4.719-8.752-6.093c-0.234-0.09-0.466-0.177-0.7-0.265
		c-1.324-0.497-2.693-1.011-4.449-2.219c-0.107-0.073-0.139-0.217-0.075-0.33c0.064-0.114,0.207-0.156,0.323-0.102
		c1.209,0.57,2.61,1.014,4.092,1.484c1.931,0.612,3.928,1.244,5.7,2.222c1.928,1.067,3.341,2.206,4.447,3.587
		c2.16,2.699,3.131,5.913,2.732,9.05c-0.371,2.926-1.896,5.599-4.432,7.791c3.674-1.187,6.538-3.988,7.779-7.678
		c1.356-4.029,0.482-8.425-2.339-11.758c-2.885-3.407-8.361-5.665-15.022-6.194c-0.135-0.011-0.236-0.126-0.23-0.261
		c0.007-0.134,0.117-0.238,0.25-0.238h0.004c8.701,0.131,14.803,2.834,17.648,7.815c3.452,6.047,1.622,13.993-4.08,17.714
		C24.768,34.143,21.428,35.091,18.002,35.091 M16.426,34.52c0.519,0.048,1.045,0.071,1.576,0.071c3.33,0,6.573-0.92,9.132-2.59
		c5.484-3.579,7.243-11.226,3.92-17.047c-1.826-3.198-5.194-5.46-9.762-6.636c3.389,1.112,6.104,2.79,7.927,4.943
		c2.936,3.468,3.845,8.044,2.433,12.241c-1.425,4.229-4.896,7.339-9.287,8.317c-0.119,0.025-0.232-0.033-0.282-0.141
		c-0.049-0.106-0.017-0.233,0.077-0.304c2.987-2.239,4.776-5.077,5.174-8.208c0.381-3.002-0.552-6.083-2.627-8.675
		c-1.063-1.328-2.43-2.428-4.299-3.462c-1.729-0.954-3.701-1.579-5.609-2.184c-0.258-0.081-0.513-0.162-0.766-0.243
		c0.411,0.169,0.809,0.318,1.202,0.466c0.236,0.088,0.47,0.176,0.705,0.268c3.624,1.406,6.802,2.85,8.993,6.289
		c2.5,3.929,2.51,8.678,0.026,12.394C23.727,31.865,20.435,34.648,16.426,34.52 M15.696,34.437c0.147,0.021,0.294,0.038,0.442,0.055
		c-0.062-0.028-0.112-0.081-0.134-0.148c-0.033-0.097-0.004-0.204,0.074-0.271c2.8-2.378,4.421-5.431,4.688-8.826
		c0.344-4.348-1.668-8.235-5.249-10.145c-0.424-0.226-0.859-0.437-1.294-0.647c-1.425-0.69-2.894-1.402-4.013-2.691
		c-0.008,0.036-0.015,0.072-0.022,0.108c-0.185,0.96-0.418,2.153-0.368,3.187c0.033,0.66,0.131,1.193,0.499,1.645
		c0.303,0.374,0.396,0.763,0.286,1.188c-0.034,0.137-0.072,0.276-0.11,0.415l-0.055,0.201c-0.243,0.916-0.545,1.787-0.865,2.709
		l-0.19,0.549c-0.096,0.217-0.109,0.339-0.103,0.408c0.006,0.065,0.032,0.115,0.084,0.161c0.159,0.094,0.371,0.177,0.596,0.265
		c0.122,0.049,0.246,0.098,0.371,0.153c0.236,0.153,0.359,0.328,0.393,0.527c0.059,0.315-0.112,0.865-0.225,1.059
		c-0.033,0.056-0.075,0.159,0.009,0.22c0.228,0.166,0.507,0.265,0.831,0.294c0.102,0.011,0.135,0.012,0.229-0.005
		c0.013-0.002,0.085-0.008,0.098-0.008c0.222,0,0.326,0.138,0.347,0.255c0.032,0.173-0.089,0.338-0.309,0.419
		c-0.127,0.048-0.331,0.06-0.538,0.044c-0.026,0.077-0.049,0.164-0.071,0.262c-0.017,0.078,0.04,0.139,0.402,0.253l0.109,0.034
		c0.574,0.197,0.642,0.977,0.681,1.441l0.015,0.176c0.028,0.31,0.058,0.659,0.146,0.93c0.152,0.461,0.518,0.64,1.042,0.56
		c0.605-0.094,1.38-0.574,2.002-0.96c0.185-0.115,0.359-0.223,0.519-0.315c0.107-0.062,0.23-0.141,0.364-0.225
		c0.662-0.421,1.541-0.952,2.23-0.804c0.337,0.07,0.665,0.272,1.002,0.614c0.177,0.194,0.248,0.455,0.219,0.781
		C19.68,29.92,16.933,33.226,15.696,34.437"/>
</g>
</svg>
