<svg xmlns="http://www.w3.org/2000/svg" xmlns:xlink="http://www.w3.org/1999/xlink" width="42" height="41.999" viewBox="0 0 42 41.999"><defs><path id="a" d="M0 0h42v41.998H0z"/></defs><clipPath id="b"><use xlink:href="#a" overflow="visible"/></clipPath><path clip-path="url(#b)" fill="#FBCB2E" d="M21 .75C32.183.75 41.25 9.813 41.25 21c0 11.182-9.067 20.25-20.25 20.25C9.814 41.25.75 32.182.75 21 .75 9.813 9.814.75 21 .75"/><path clip-path="url(#b)" fill="#fff" d="M21 42C9.42 42 0 32.58 0 21S9.42 0 21 0s21 9.42 21 21-9.42 21-21 21m0-40.5C10.248 1.5 1.5 10.248 1.5 21S10.248 40.5 21 40.5 40.5 31.752 40.5 21 31.752 1.5 21 1.5M15.763 27.362c.37.472.705.96.955 1.484-.258-.393-.717-.91-1.124-1.317-.27-.27-.516-.494-.663-.6.124.186.257.483.394.87.64 1.806 1.376 5.483 1.762 7.92.206 1.114 2.36 1.482 3.672.935.1-.04.195-.086.284-.14.254-.148.46-.343.584-.583.038-.074.07-.153.093-.238.07-.27.055-.592-.084-.962-.787-2.11-1.51-7.032-.262-8.97.85-1.32 2.488-2.922 1.97-5.23 0 0-.534-.026-.967.216-.17.092-.326.23-.425.425-.015.022-.024.044-.034.068.07 3.123-1.402 3.174-2.203 5.34-.655 1.767-.514 4.167-.31 6.01h-.013c-.455-2.543-.785-5.413.595-7.568.292-.462.626-.883.862-1.318.332-.586.45-1.226.456-1.885.002-.138-.002-.273-.01-.41-1.23-1.6-4.95 1.946-7.013-2.177 0 0-.933-.485-1.386-.403-.133.024-.224.095-.24.24-.004.02-.004.044-.004.068-.125.917.266 2.186.355 2.95.268 2.33 1.013 3.2 1.955 4.307.27.316.544.64.8.967M13.22 17.042c.074.246.2.437.358.576.04.036.084.07.13.1.347.238.794.27 1.137.134.28 1.055 1.357 1.62 2.608 1.83.322.055.656.085.993.095.99.03 1.994-.127 2.73-.41.545-.206 1.057-.448 1.5-.766.332-.237.626-.517.86-.86.207-.3.368-.65.47-1.057.07-.273.116-.558.156-.853-.105-.5-.198-1.006-.252-1.517-.028-.244-.046-.488-.054-.73-.005-.102-.005-.203-.003-.303.005-.72.116-1.435.358-2.095-.105.592-.112 1.19-.04 1.774.025.193.057.384.097.573.025.115.052.23.08.343l.04.16c.017-.084.03-.166.048-.25.1-.514.25-1.044.495-1.584.56-1.24 1.63-2.534 3.795-3.795l.05-.03c.25-.145.414-.324.505-.523.56-1.222-1.57-3.21-2.953-2.665-.062.023-.12.052-.177.086-.113.066-.22.15-.316.26-.208.23-.4.442-.59.644-1.707 1.865-2.58 2.683-5.18 5.243-.6.61-1.115 1.097-1.564 1.504l-.022.02c-.74.67-1.3 1.118-1.766 1.537-.228.208-.434.41-.625.624l-.014.017c-.22.25-.425.52-.624.852-.19.312-.376.674-.57 1.117.027-.235.073-.465.138-.686.032-.115.07-.23.113-.343.546-1.472 1.82-2.723 3.253-4.16-1.172.23-2.69.484-3.796 1.207-.413.27-.77.605-1.028 1.028-.12.193-.218.405-.292.636-.254.796-.252 1.57-.047 2.266"/></svg>