<svg xmlns="http://www.w3.org/2000/svg" xmlns:xlink="http://www.w3.org/1999/xlink" width="42" height="42" viewBox="0 0 42 42"><defs><path id="a" d="M0 0h42v42H0z"/></defs><clipPath id="b"><use xlink:href="#a" overflow="visible"/></clipPath><path clip-path="url(#b)" fill="#6C2D8E" d="M21 .75C32.185.75 41.25 9.813 41.25 21c0 11.183-9.065 20.25-20.25 20.25C9.816 41.25.75 32.183.75 21 .75 9.813 9.816.75 21 .75"/><path clip-path="url(#b)" fill="#fff" d="M21 42C9.42 42 0 32.58 0 21S9.42 0 21 0s21 9.42 21 21-9.42 21-21 21m0-40.5C10.248 1.5 1.5 10.248 1.5 21c0 10.753 8.748 19.5 19.5 19.5S40.5 31.753 40.5 21c0-10.752-8.748-19.5-19.5-19.5"/><path clip-path="url(#b)" fill-rule="evenodd" clip-rule="evenodd" fill="#fff" d="M30.903 13.758c-1.713-.608-2.774-2.507-3.183-3.65-1.825 2.81-5.332 1.8-6.72-.853-1.382 2.652-4.888 3.664-6.714.854-.406 1.14-1.47 3.04-3.184 3.648 2.196 1.59 2.52 1.408 1.592 3.943-5.547 15.144 7.49 9.806 8.307 15.047.822-5.237 13.833.085 8.327-15.005-.928-2.54-.645-2.372 1.576-3.984M14.2 18.366c.66-1.814 1.675-3.102-.212-4.644.287-.31.553-.645.79-.992 2.257 1.272 4.33.765 6.224-.878 1.896 1.643 3.976 2.15 6.233.878.222.328.47.643.74.936-3.207 3.323-9.84 8.42-14.95 10.548-.09-1.35.223-3.212 1.174-5.848m12.257 9.248c-1.82.716-3.838.896-5.455 2.098-1.348-1.01-3.115-1.32-4.73-1.846 4.19-1.63 9.27-4.066 12.39-6.672 1.004 4.34-.418 5.718-2.205 6.42"/></svg>