<svg xmlns="http://www.w3.org/2000/svg" xmlns:xlink="http://www.w3.org/1999/xlink" width="42" height="42" viewBox="0 0 42 42"><defs><path id="a" d="M0 0h42v42H0z"/></defs><clipPath id="b"><use xlink:href="#a" overflow="visible"/></clipPath><path clip-path="url(#b)" fill="#EF932D" d="M41.25 21c0 11.182-9.07 20.25-20.25 20.25C9.817 41.25.75 32.182.75 21 .75 9.813 9.817.75 21 .75 32.18.75 41.25 9.813 41.25 21"/><path clip-path="url(#b)" fill="#fff" d="M21 42C9.42 42 0 32.58 0 21S9.42 0 21 0s21 9.42 21 21-9.42 21-21 21m0-40.5C10.248 1.5 1.5 10.248 1.5 21c0 10.753 8.748 19.5 19.5 19.5S40.5 31.753 40.5 21c0-10.752-8.748-19.5-19.5-19.5"/><path clip-path="url(#b)" fill="#fff" d="M27.834 8.96l-.136-.014h-7.2L13.874 23.2l6.438-.377-4.405 10.227 12.225-15.19-5.848.345z"/></svg>