<svg xmlns="http://www.w3.org/2000/svg" xmlns:xlink="http://www.w3.org/1999/xlink" width="42" height="42" viewBox="0 0 42 42"><defs><path id="a" d="M0 0h42v42H0z"/></defs><clipPath id="b"><use xlink:href="#a" overflow="visible"/></clipPath><path clip-path="url(#b)" fill="#E2018A" d="M41.25 21c0 11.182-9.065 20.25-20.25 20.25C9.818 41.25.75 32.182.75 21 .75 9.813 9.818.75 21 .75 32.185.75 41.25 9.813 41.25 21"/><path clip-path="url(#b)" fill="#fff" d="M21 42C9.42 42 0 32.58 0 21S9.42 0 21 0s21 9.42 21 21-9.42 21-21 21m0-40.5C10.248 1.5 1.5 10.248 1.5 21S10.248 40.5 21 40.5 40.5 31.75 40.5 21 31.752 1.5 21 1.5M17.345 12.698c1.437 0 2.602-1.165 2.602-2.602s-1.165-2.6-2.602-2.6-2.602 1.163-2.602 2.6 1.165 2.602 2.602 2.602M23.21 12.698c1.438 0 2.603-1.165 2.603-2.602s-1.165-2.6-2.602-2.6c-1.437 0-2.602 1.163-2.602 2.6s1.165 2.602 2.603 2.602M30.458 21.377l-2.37-7.24c-.146-.45-.564-.747-1.035-.747H12.578c-.602 0-1.09.477-1.09 1.08v7.246c0 .603.495 1.09 1.097 1.09.6 0 1.096-.487 1.096-1.09v-6.17h.468v17.585c0 .754.614 1.363 1.367 1.363.752 0 1.366-.61 1.366-1.362v-8.81h.936v8.81c0 .754.614 1.363 1.366 1.363.456 0 .86-.224 1.11-.568.242.345.64.568 1.096.568.753 0 1.35-.61 1.35-1.362v-5.288h.933v5.29c0 .752.615 1.36 1.368 1.36.752 0 1.366-.608 1.366-1.36v-5.29h2.243c-.846-3.307-1.596-6.61-2.243-9.915v-1.952l1.986 6.08c.15.46.575.75 1.033.75.112 0 .227-.017.34-.054.57-.184.883-.8.695-1.373m-7.113-1.528c-.28.45-.667.888-1.15 1.3-.816.692-1.622 1.07-1.655 1.087-.105.05-.216.06-.29.06-.075 0-.185-.01-.29-.06-.034-.017-.84-.396-1.655-1.088-.484-.412-.87-.85-1.15-1.3-.358-.578-.54-1.18-.54-1.787 0-.364.07-.705.203-1.013.124-.285.302-.537.528-.748.416-.39.972-.61 1.524-.61.445 0 .852.146 1.144.415.09.083.17.176.236.278.066-.102.145-.195.236-.278.292-.27.698-.416 1.143-.416.553 0 1.108.223 1.524.612.226.21.403.463.528.748.134.308.2.65.2 1.013 0 .607-.18 1.208-.537 1.786"/></svg>