<?xml version="1.0" encoding="utf-8"?>
<!-- Generator: Adobe Illustrator 16.0.0, SVG Export Plug-In . SVG Version: 6.00 Build 0)  -->
<!DOCTYPE svg PUBLIC "-//W3C//DTD SVG 1.1//EN" "http://www.w3.org/Graphics/SVG/1.1/DTD/svg11.dtd">
<svg version="1.1" id="Слой_1" xmlns="http://www.w3.org/2000/svg" xmlns:xlink="http://www.w3.org/1999/xlink" x="0px" y="0px"
	 width="42px" height="42px" viewBox="0 0 42 42" enable-background="new 0 0 42 42" xml:space="preserve">
<g>
	<defs>
		<rect id="SVGID_1_" width="42" height="42"/>
	</defs>
	<clipPath id="SVGID_2_">
		<use xlink:href="#SVGID_1_"  overflow="visible"/>
	</clipPath>
	<path clip-path="url(#SVGID_2_)" fill="#92C64B" d="M41.25,21c0,11.182-9.066,20.25-20.25,20.25C9.817,41.25,0.75,32.18,0.75,21
		C0.75,9.813,9.817,0.75,21,0.75C32.184,0.75,41.25,9.813,41.25,21"/>
</g>
<g>
	<defs>
		<rect id="SVGID_3_" width="42" height="42"/>
	</defs>
	<clipPath id="SVGID_4_">
		<use xlink:href="#SVGID_3_"  overflow="visible"/>
	</clipPath>
	<path clip-path="url(#SVGID_4_)" fill="#FFFFFF" d="M21,42C9.42,42,0,32.58,0,21S9.42,0,21,0s21,9.42,21,21S32.58,42,21,42 M21,1.5
		C10.248,1.5,1.5,10.248,1.5,21c0,10.75,8.748,19.5,19.5,19.5S40.5,31.75,40.5,21C40.5,10.248,31.752,1.5,21,1.5"/>
</g>
<g>
	<defs>
		<rect id="SVGID_5_" width="42" height="42"/>
	</defs>
	<clipPath id="SVGID_6_">
		<use xlink:href="#SVGID_5_"  overflow="visible"/>
	</clipPath>
	<path clip-path="url(#SVGID_6_)" fill="#FFFFFF" d="M15.136,34.605c1.05-0.804,5.3-5.801,4.295-6.906
		c-0.255-0.26-0.544-0.477-0.876-0.547c-0.762-0.163-1.82,0.654-2.416,1c-0.725,0.42-1.77,1.178-2.61,1.307
		c-0.62,0.094-1.11-0.109-1.316-0.73c-0.107-0.33-0.135-0.737-0.166-1.086c-0.035-0.391-0.072-1.146-0.52-1.301
		c-0.267-0.092-0.76-0.189-0.673-0.578c0.035-0.158,0.082-0.324,0.148-0.475c0.19,0.021,0.468,0.046,0.618-0.01
		c0.196-0.074,0.21-0.219-0.01-0.188c-0.118,0.02-0.167,0.02-0.29,0.008c-0.346-0.031-0.672-0.136-0.955-0.341
		c-0.188-0.136-0.188-0.36-0.08-0.55c0.105-0.176,0.24-0.657,0.197-0.891c-0.026-0.147-0.13-0.26-0.25-0.34
		c-0.354-0.16-0.707-0.262-1.03-0.459c-0.1-0.088-0.156-0.196-0.168-0.328c-0.01-0.144,0.028-0.313,0.116-0.51
		c0.38-1.106,0.76-2.151,1.05-3.242c0.055-0.203,0.114-0.407,0.165-0.613c0.095-0.37-0.004-0.678-0.24-0.968
		c-0.413-0.51-0.518-1.103-0.553-1.79c-0.063-1.313,0.308-2.844,0.494-3.89c1.424,1.943,3.6,2.65,5.57,3.7
		c3.945,2.103,5.708,6.258,5.38,10.385c-0.27,3.446-1.91,6.563-4.774,8.997c3.863,0.193,7.212-2.44,8.51-4.382
		c2.28-3.41,2.58-8.02-0.027-12.12c-2.109-3.31-5.189-4.763-8.873-6.192c-1.55-0.6-3.06-1.054-5.098-2.457
		c2.81,1.326,6.676,1.99,9.778,3.7c1.774,0.982,3.231,2.1,4.372,3.525c4.07,5.084,3.998,12.3-2.592,17.24
		c9.006-2.005,12.957-12.786,6.721-20.154c-3.225-3.808-9.075-5.794-15.194-6.28c8.64,0.13,14.688,2.878,17.437,7.69
		c3.32,5.815,1.688,13.667-4,17.38c-3.539,2.311-8.157,3.072-12.136,2.395"/>
</g>
<g>
	<defs>
		<rect id="SVGID_7_" width="42" height="42"/>
	</defs>
	<clipPath id="SVGID_8_">
		<use xlink:href="#SVGID_7_"  overflow="visible"/>
	</clipPath>
	<path clip-path="url(#SVGID_8_)" fill="#FFFFFF" d="M18.002,35.09c-0.99,0-1.968-0.08-2.907-0.24
		c-0.098-0.016-0.177-0.09-0.202-0.186c-0.023-0.098,0.013-0.198,0.092-0.26c0.94-0.717,4.2-4.543,4.345-6.146
		c0.016-0.183-0.012-0.313-0.083-0.394c-0.26-0.264-0.505-0.418-0.744-0.471c-0.502-0.109-1.305,0.387-1.86,0.737
		c-0.138,0.091-0.267,0.17-0.38,0.235c-0.155,0.09-0.326,0.195-0.505,0.308c-0.696,0.433-1.483,0.92-2.19,1.03
		c-0.786,0.12-1.365-0.21-1.593-0.9c-0.106-0.324-0.14-0.705-0.17-1.039l-0.014-0.178c-0.025-0.3-0.077-0.92-0.344-1.012
		l-0.097-0.03c-0.283-0.09-0.87-0.272-0.74-0.84c0.04-0.183,0.087-0.337,0.142-0.47c-0.195-0.067-0.374-0.16-0.536-0.277
		c-0.273-0.195-0.333-0.557-0.147-0.875c0.086-0.15,0.193-0.57,0.164-0.72c-0.013-0.078-0.085-0.14-0.142-0.181
		c-0.08-0.029-0.198-0.076-0.314-0.121c-0.234-0.094-0.476-0.188-0.708-0.33c-0.182-0.155-0.268-0.325-0.286-0.521
		c-0.016-0.187,0.03-0.396,0.136-0.634l0.182-0.53c0.318-0.913,0.617-1.775,0.856-2.674l0.055-0.204
		c0.037-0.135,0.074-0.27,0.107-0.406c0.07-0.27,0.012-0.5-0.19-0.75c-0.48-0.59-0.576-1.28-0.61-1.935
		c-0.052-1.094,0.187-2.32,0.377-3.306c0.045-0.227,0.086-0.44,0.12-0.638c0.02-0.1,0.093-0.178,0.19-0.2
		c0.097-0.023,0.2,0.015,0.258,0.095c1.08,1.472,2.583,2.2,4.176,2.972c0.442,0.213,0.882,0.426,1.312,0.656
		c3.76,2.005,5.872,6.076,5.512,10.625c-0.262,3.328-1.77,6.335-4.373,8.732c3.584-0.109,6.528-2.595,7.653-4.275
		c2.372-3.551,2.36-8.088-0.032-11.847c-2.109-3.312-5.209-4.72-8.75-6.093l-0.7-0.265c-1.325-0.497-2.694-1.01-4.45-2.22
		c-0.107-0.072-0.14-0.216-0.075-0.33c0.064-0.113,0.207-0.155,0.323-0.1c1.21,0.57,2.61,1.013,4.092,1.483
		c1.93,0.612,3.928,1.244,5.7,2.222c1.928,1.067,3.34,2.206,4.448,3.587c2.159,2.7,3.129,5.913,2.731,9.05
		c-0.372,2.926-1.897,5.601-4.433,7.791c3.674-1.187,6.537-3.987,7.779-7.678c1.355-4.03,0.48-8.425-2.34-11.758
		c-2.885-3.407-8.36-5.665-15.022-6.194c-0.135-0.01-0.236-0.126-0.23-0.26c0.007-0.135,0.117-0.24,0.25-0.24h0.004
		c8.7,0.132,14.803,2.835,17.646,7.816c3.453,6.047,1.623,13.993-4.079,17.714C24.768,34.143,21.427,35.091,18.002,35.09
		 M16.426,34.521c0.52,0.047,1.045,0.069,1.576,0.069c3.33,0,6.573-0.92,9.132-2.59c5.484-3.578,7.243-11.225,3.921-17.046
		c-1.826-3.198-5.195-5.46-9.763-6.636c3.39,1.112,6.104,2.79,7.927,4.943c2.936,3.47,3.844,8.045,2.432,12.242
		c-1.424,4.23-4.896,7.34-9.287,8.316c-0.119,0.024-0.231-0.033-0.281-0.141c-0.05-0.106-0.018-0.234,0.077-0.305
		c2.987-2.24,4.776-5.077,5.174-8.208c0.38-3.002-0.552-6.083-2.627-8.675c-1.063-1.327-2.431-2.427-4.3-3.46
		c-1.728-0.955-3.7-1.58-5.608-2.185c-0.26-0.08-0.514-0.162-0.767-0.243c0.41,0.17,0.81,0.318,1.202,0.466
		c0.236,0.088,0.47,0.176,0.705,0.268c3.624,1.406,6.802,2.85,8.994,6.29c2.5,3.929,2.51,8.677,0.025,12.394
		c-1.232,1.845-4.525,4.627-8.534,4.5 M15.693,34.438c0.147,0.021,0.294,0.039,0.442,0.056c-0.062-0.028-0.112-0.08-0.134-0.147
		c-0.033-0.098-0.004-0.205,0.074-0.271c2.8-2.38,4.42-5.433,4.688-8.827c0.344-4.348-1.668-8.235-5.25-10.145
		c-0.423-0.226-0.858-0.437-1.293-0.647c-1.425-0.69-2.894-1.402-4.013-2.69l-0.022,0.107C10,12.833,9.767,14.026,9.817,15.06
		c0.033,0.66,0.13,1.192,0.5,1.644c0.302,0.374,0.395,0.763,0.285,1.188c-0.034,0.137-0.072,0.276-0.11,0.415l-0.055,0.2
		c-0.243,0.917-0.545,1.788-0.865,2.71l-0.19,0.551c-0.096,0.215-0.11,0.338-0.103,0.406c0.006,0.065,0.032,0.115,0.084,0.16
		c0.16,0.096,0.37,0.178,0.596,0.266c0.122,0.051,0.246,0.099,0.37,0.153c0.237,0.153,0.36,0.328,0.394,0.527
		c0.06,0.315-0.112,0.864-0.225,1.06c-0.032,0.055-0.074,0.158,0.01,0.221c0.228,0.164,0.507,0.264,0.83,0.293
		c0.103,0.01,0.136,0.012,0.23-0.006c0.013-0.002,0.085-0.008,0.098-0.008c0.222,0,0.326,0.139,0.347,0.256
		c0.032,0.172-0.09,0.338-0.31,0.42c-0.126,0.047-0.33,0.06-0.537,0.043c-0.026,0.076-0.05,0.164-0.07,0.262
		c-0.018,0.078,0.04,0.14,0.4,0.253l0.11,0.034c0.574,0.197,0.642,0.977,0.68,1.439l0.016,0.178c0.028,0.31,0.058,0.659,0.146,0.93
		c0.152,0.46,0.518,0.64,1.042,0.56c0.605-0.094,1.38-0.573,2.002-0.96c0.185-0.115,0.36-0.223,0.52-0.314
		c0.106-0.063,0.23-0.143,0.363-0.227c0.662-0.42,1.54-0.952,2.23-0.804c0.337,0.069,0.665,0.272,1.002,0.614
		c0.176,0.193,0.247,0.455,0.218,0.779c-0.148,1.616-2.895,4.922-4.132,6.133"/>
</g>
<path fill="#FFFFFF" d="M29.26,11.862c4.032,5.054,4.259,7.7,3.959,10.048s-0.094,2.798-2.73,7.643
	c-0.516,0.948,2.08-6.383,1.512-8.782c-1.125-4.75-1.047-5.158-2.74-8.183C28.455,11.151,29.26,11.862,29.26,11.862z"/>
</svg>
